<?xml version="1.0" standalone="no"?>
<!DOCTYPE svg PUBLIC "-//W3C//DTD SVG 20010904//EN"
 "http://www.w3.org/TR/2001/REC-SVG-20010904/DTD/svg10.dtd">
<svg version="1.0" xmlns="http://www.w3.org/2000/svg"
 width="600.000000pt" height="578.000000pt" viewBox="0 0 600.000000 578.000000"
 preserveAspectRatio="xMidYMid meet">
<metadata>
Created by potrace 1.16, written by Peter Selinger 2001-2019
</metadata>
<g transform="translate(0.000000,578.000000) scale(0.100000,-0.100000)"
fill="#00815f" stroke="none">
<path d="M3910 5764 c-78 -21 -206 -85 -277 -138 -218 -164 -387 -456 -452
-784 -91 -454 5 -858 262 -1099 79 -73 146 -113 252 -148 70 -23 91 -26 175
-22 80 4 108 10 176 39 119 51 218 120 320 222 169 170 277 375 340 646 51
217 41 577 -22 766 -88 264 -277 461 -500 519 -73 19 -202 18 -274 -1z"/>
<path d="M1741 5745 c-204 -57 -389 -256 -475 -508 -51 -150 -63 -438 -27
-648 82 -475 354 -847 725 -990 184 -70 401 -24 558 121 290 265 366 777 191
1290 -144 425 -483 732 -823 746 -65 3 -112 -1 -149 -11z"/>
<path d="M5309 4034 c-90 -16 -156 -40 -257 -95 -261 -139 -480 -432 -572
-762 -28 -99 -60 -303 -60 -381 0 -418 260 -746 589 -746 335 1 673 254 855
641 93 196 125 335 133 564 5 151 3 180 -16 259 -68 283 -251 482 -485 527
-62 12 -93 10 -187 -7z"/>
<path d="M496 3919 c-152 -23 -288 -105 -370 -223 -86 -123 -115 -231 -123
-449 -6 -171 3 -254 42 -397 129 -463 489 -819 901 -891 147 -26 308 33 430
155 82 83 126 159 159 273 136 466 -75 1054 -489 1360 -84 62 -222 136 -294
157 -70 20 -182 27 -256 15z"/>
<path d="M2895 2773 c-329 -43 -684 -213 -932 -448 -233 -220 -503 -638 -662
-1023 -86 -211 -170 -513 -178 -647 -17 -284 181 -559 453 -629 78 -20 221
-21 339 -1 143 23 239 53 610 188 268 99 465 138 687 138 193 0 323 -35 728
-196 157 -63 312 -122 345 -131 92 -25 299 -30 388 -9 158 37 305 141 368 260
83 155 76 396 -17 657 -54 151 -167 373 -276 542 -266 413 -418 606 -649 831
-352 342 -651 478 -1038 474 -75 -1 -149 -4 -166 -6z"/>
</g>
</svg>
